# xmcd CD database file
# Copyright (C) 1993-1998 Ti Kan
#
# Track frame offsets:
#	150
#	21527
#	39604
#	52281
#	66683
#	83448
#	99350
#	114390
#	137717
#	149494
#	163146
#	183023
#	195138
#	212278
#	229680
#	246145
#	263360
#	276675
#	289690
#	301655
#	321232
#
# Disc length: 4430 seconds
#
# Revision: 1
# Processed by: cddbd v1.4b41PL1 Copyright (c) Steve Scherf et al.
# Submitted via: CDValet v3.31 - Copyright (c) 1997 Greg Leichner
#
DISCID=2e114c15
DTITLE=Various Artist - Country Special Selects
DYEAR=1900
DGENRE=
TTITLE0=Hold On/Clint Black
TTITLE1=How Do I Live/Donna Fargo
TTITLE2=How Would I/Donna Fargo
TTITLE3=I'd Fall In Love Tonight/Ann Murray
TTITLE4=I'd Rather Ride Around With You/Reba McEntire
TTITLE5=In Another Eyes/Trisha Yearwood
TTITLE6=Is That a Tear/Tracy Lawrence
TTITLE7=Last Watlz/Rodney Crowell
TTITLE8=Little Bitty/Alan Jackson
TTITLE9=Love Has No Right/Billy Joe Royal
TTITLE10=Love Of My Life/Sammy Kershaw
TTITLE11=Make The World Go Away/Eddy Arnold
TTITLE12=Not A Moment To Soon/Tim McGraw
TTITLE13=Nothing But The Taillight/Clint Black
TTITLE14=Oh Girl/Vince Gill
TTITLE15=One Of those Nights Tonight/Lorrie Morgan
TTITLE16=Perfect Love/Trisha Yearwood
TTITLE17=Pleding My Love/David Allen Coe
TTITLE18=Right Or Wrong/Wanda Jackson
TTITLE19=Shameless/Garth Brooks
TTITLE20=Sold/Micheal J. Montgomery
EXTD=
EXTT0=
EXTT1=
EXTT2=
EXTT3=
EXTT4=
EXTT5=
EXTT6=
EXTT7=
EXTT8=
EXTT9=
EXTT10=
EXTT11=
EXTT12=
EXTT13=
EXTT14=
EXTT15=
EXTT16=
EXTT17=
EXTT18=
EXTT19=
EXTT20=
PLAYORDER=
